<?xml version="1.0" standalone="no"?>
<!DOCTYPE svg PUBLIC "-//W3C//DTD SVG 20010904//EN"
 "http://www.w3.org/TR/2001/REC-SVG-20010904/DTD/svg10.dtd">
<svg version="1.0" xmlns="http://www.w3.org/2000/svg"
 width="417.000000pt" height="417.000000pt" viewBox="0 0 417.000000 417.000000"
 preserveAspectRatio="xMidYMid meet">
<metadata>
Created by potrace 1.11, written by Peter Selinger 2001-2013
</metadata>
<g transform="translate(0.000000,417.000000) scale(0.100000,-0.100000)"
fill="#000000" stroke="none">
<path d="M2315 3269 c-22 -5 -55 -11 -74 -14 -72 -14 -342 -100 -496 -159 -82
-31 -170 -107 -211 -181 -11 -20 -25 -70 -30 -110 -1 -11 -3 -20 -4 -20 -6 0
-21 -190 -22 -280 -2 -141 18 -221 69 -271 24 -24 32 -26 77 -21 45 5 205 46
246 64 8 3 17 7 20 8 3 0 70 23 150 49 80 27 150 49 155 51 6 1 17 5 25 8 15
6 150 50 160 52 20 5 112 36 145 49 78 33 143 130 151 227 2 27 5 53 6 57 1 4
-1 21 -5 37 -4 17 -9 39 -11 51 -14 72 -73 147 -129 162 -46 13 -97 3 -282
-57 -88 -29 -164 -53 -170 -54 -5 -2 -14 -5 -20 -8 -5 -4 -23 -10 -40 -14 -82
-22 -180 -70 -211 -103 -28 -30 -45 -84 -49 -155 -5 -82 30 -89 160 -32 30 14
55 22 55 20 0 -3 10 1 23 9 12 7 40 19 62 26 22 6 49 15 60 20 11 5 63 23 115
40 52 17 102 34 110 37 29 12 45 15 75 17 24 1 31 -4 33 -20 2 -16 -7 -27 -33
-43 -20 -11 -41 -21 -47 -21 -5 0 -24 -7 -41 -15 -29 -13 -247 -93 -272 -99
-5 -2 -17 -6 -25 -9 -50 -22 -189 -64 -194 -59 -3 3 -6 1 -6 -4 0 -16 -89 -22
-127 -9 -35 11 -37 41 -18 201 12 100 73 166 199 214 72 28 325 117 344 121 8
2 28 8 62 19 14 5 50 16 80 25 30 9 65 24 78 33 28 22 40 84 22 117 -21 39
-94 58 -165 44z"/>
<path d="M2518 2395 c-3 -3 -18 -8 -34 -11 -16 -3 -47 -10 -69 -16 -22 -5 -48
-12 -57 -13 -10 -2 -22 -6 -26 -9 -5 -3 -22 -7 -38 -10 -81 -15 -631 -203
-707 -242 -55 -29 -68 -127 -27 -207 33 -63 53 -80 139 -117 80 -34 99 -52 95
-97 -2 -39 25 -53 110 -54 43 -1 83 4 88 9 6 6 11 52 11 107 0 115 -11 136
-94 177 l-53 27 27 10 c15 6 40 14 55 17 27 6 68 18 311 94 74 23 140 43 145
45 6 1 18 5 26 8 8 3 59 20 112 37 74 24 104 39 123 62 24 28 28 38 28 73 0
39 -5 50 -39 81 -29 28 -43 34 -78 34 -23 0 -45 -2 -48 -5z"/>
<path d="M2494 2053 c-33 -13 -77 -31 -99 -40 -22 -9 -47 -22 -55 -28 -8 -7
-32 -20 -52 -30 -47 -22 -98 -72 -99 -99 -4 -97 0 -219 8 -227 10 -10 69 -13
160 -10 36 1 42 13 44 81 1 25 6 53 11 62 4 9 48 38 96 65 116 63 142 89 142
145 0 52 -33 99 -72 103 -14 2 -52 -8 -84 -22z"/>
<path d="M1784 1562 c-31 -6 -44 -32 -44 -94 0 -49 3 -59 23 -70 16 -9 105
-12 335 -13 360 0 344 -4 347 89 3 95 20 90 -333 91 -170 0 -317 -2 -328 -3z"/>
<path d="M1810 1315 c-5 -6 -8 -53 -6 -105 3 -118 15 -139 105 -182 57 -27 78
-32 156 -34 140 -3 264 38 300 99 20 33 30 193 14 218 -11 18 -554 22 -569 4z"/>
<path d="M1982 948 c17 -51 149 -70 196 -29 41 35 28 41 -89 41 -81 0 -110 -3
-107 -12z"/>
</g>
</svg>
